Världens historia - Del 7 av 8 - Industrialismen

Rippat från SVT mha pirateplayer.



Format                                   : MPEG-4
Format profile                           : Base Media
Codec ID                                 : isom
File size                                : 1 006 MiB
Duration                                 : 50mn 14s
Overall bit rate mode                    : Variable
Overall bit rate                         : 2 799 Kbps
Writing application                      : Lavf54.25.104

Video
ID                                       : 1
Format                                   : AVC
Format/Info                              : Advanced Video Codec
Format profile                           : Main@L3.1
Format settings, CABAC                   : Yes
Format settings, ReFrames                : 4 frames
Format settings, GOP                     : M=4, N=50
Codec ID                                 : avc1
Codec ID/Info                            : Advanced Video Coding
Duration                                 : 50mn 14s
Bit rate mode                            : Constant
Bit rate                                 : 2 700 Kbps
Width                                    : 1 280 pixels
Height                                   : 720 pixels
Display aspect ratio                     : 16:9
Frame rate mode                          : Constant
Frame rate                               : 25.000 fps
Standard                                 : PAL
Color space                              : YUV
Chroma subsampling                       : 4:2:0
Bit depth                                : 8 bits
Scan type                                : Progressive
Bits/(Pixel*Frame)                       : 0.117
Stream size                              : 970 MiB (96%)

Audio
ID                                       : 2
Format                                   : AAC
Format/Info                              : Advanced Audio Codec
Format profile                           : HE-AAC / LC
Codec ID                                 : 40
Duration                                 : 50mn 14s
Bit rate mode                            : Variable
Bit rate                                 : 96.0 Kbps
Maximum bit rate                         : 98.3 Kbps
Channel(s)                               : 2 channels
Channel positions                        : Front: L R
Sampling rate                            : 48.0 KHz / 24.0 KHz
Compression mode                         : Lossy
Stream size                              : 33.9 MiB (3%)

